<?xml version="1.0" encoding="UTF-8"?>
<svg id="_1" data-name="1" xmlns="http://www.w3.org/2000/svg" version="1.1" viewBox="0 0 1920 1080">
  <path id="Inner_Mouth" data-name="Inner Mouth" d="M289.94,539.38c15.9-8.39,300.2-178.47,668.25-178.47s665.68,173.22,678.98,177.35c-10.96,11.08-253.65,431.98-677.33,425.97-423.69-6.01-657.02-409.08-669.89-424.84Z" fill="#801817" stroke-width="0"/>
  <path id="Tongue" d="M445.87,689.51c65.62-56.94,174.89-141.7,392.43-125.02,42.35,3.25,76.43,3.92,121.02,5.27,44.58,1.36,103.74-8.56,158.3-7.15,260.43,6.73,305.36,98.04,356.17,149.11-52.12,36.8-328.45,226.28-511.04,224.34-182.6-1.94-493.64-219.91-516.87-246.55Z" fill="#f2898b" stroke-width="0"/>
  <path id="Lower_Teeth" data-name="Lower Teeth" d="M511.47,769.45c25.7,5.11,49.19,10.04,69.11,17.7-6.3,15.57-11.37,27.47-13.62,36.09,11.37-14.32,14.1-21.44,26.72-31.66,3.21.12,65.01,11.73,65.01,11.73l-4.24,48.52,13.83-46.34,78.92,5.08,3.69,55.2,6.64-54.47,83.34,1.45,3.69,63.91,8.11-62.46,103.08,2.91,3.85,73.36,7.32-74.81,101.09.72,5.16,58.83,3.69-60.28,87.02-2.9,8.11,53.02v-55.2l71.54-7.99,13.28,53.74,3.69-55.2,81.87-2.18,5.9,33.05,4.43-33.77,58.27-3.63s5.91,15,11.6,34.6c-201.11,94.15-319.22,139.7-462.57,139.7-143.35,0-290.24-61.11-468.62-160.71,10.64-17.52,20.09-38.01,20.09-38.01Z" fill="#fff" stroke-width="0"/>
  <path id="Upper_teeth" data-name="Upper teeth" d="M468.3,467.97l88.15-22.36,17.7-38.74-1.36,41.72,105.93-32,13.77-32.92,4.92,32.93,120.95-5.23,7.86-49.39,3.93,49.39,132.75,4.84,9.5-55.2,8.67,55.2h124.42l10.82-55.2,5.42,51.09,118.81-6.13,9.14-25.91,9.22,22.59,96.48,47.25v-37.47l25.42,45.91,85.79,21.11-10.03-41.94s-378.56-142.26-496.56-141.96c-107.26-3.74-553.64,155.31-491.7,131.75v40.67Z" fill="#fff" stroke-width="0"/>
  <path id="Upper_Lips" data-name="Upper Lips" d="M1638.8,538.5c-38.82-15.37-392.69-296.05-582.14-280.73-50.15,1.26-85.79,29.36-96.66,33.19-5.21-3.96-52.37-35.23-96.59-35.23-172.37-9.7-520.63,256.34-580.12,282.38,38.04,6.3,238.21-66.89,330.13-81.9,109.28-28.65,320.8-31.83,350.3-31.97,29.5-.14,258.38,1.53,347.74,25.53,72.02,19.34,319.28,88.73,327.33,88.73Z" fill="#e18788" stroke-width="0"/>
  <path id="Lower_Lips" data-name="Lower Lips" d="M1638.8,538.5c-86.82,172.72-300.78,465.82-556.27,480.8-65.45,3.66-82.81,3.91-124.62,3.91-28.66,0-48.86-.91-120.32-10.72-239.83-32.68-389.62-220.84-554.3-474.38,63.06,1.85,0,61.79,330.13,237.19,107.36,38.33,207.32,85.02,347.74,85.02,157.53,0,244.09-38.3,344.94-79.66,269.53-132.64,297.28-249.19,332.69-242.16Z" fill="#e18788" stroke-width="0"/>
</svg>